<?xml version="1.0" encoding="utf-8"?>
<!-- Generator: Adobe Adobe Illustrator 24.2.0, SVG Export Plug-In . SVG Version: 6.00 Build 0)  -->
<svg version="1.1" xmlns="http://www.w3.org/2000/svg" xmlns:xlink="http://www.w3.org/1999/xlink" x="0px" y="0px"
	 viewBox="0 0 2048 2048" style="enable-background:new 0 0 2048 2048;" xml:space="preserve">
<style type="text/css">
	.st0{display:none;}
	.st1{display:inline;stroke:#000000;stroke-miterlimit:10;}
	.st2{fill:none;stroke:#000000;stroke-width:40;stroke-miterlimit:10;}
	.st3{fill:none;stroke:#000000;stroke-width:50;stroke-miterlimit:10;}
	.st4{fill:none;stroke:#000000;stroke-width:10;stroke-miterlimit:10;}
</style>
<g id="Base" class="st0">
	<circle class="st1" cx="1024" cy="1024" r="1024"/>
</g>
<g id="Layer_2">
	<path class="st3" d="M530.99,8.16c-6.6,153.92-12.63,312.01,38.24,457.84c50.88,145.83,172.21,278.81,328.67,299.16
		c174.49,22.7,341.42-102.33,417.84-257.1c76.42-154.77,81.44-332.95,79.31-504.74c-17.76,491.85-18.37,984.28-1.84,1476.17
		c3.16,94.15,6.82,189.69-15.77,281.27c-22.6,91.58-75.37,180.41-160.02,225.67c-107.74,57.61-250.57,30.57-341.69-49.85
		s-133.22-205.06-129.04-324.89c3.14-89.79,32.49-182.01,98.18-244.94c84.69-81.14,214.44-100.22,332.44-87.84
		c118,12.37,231.37,51.45,348.54,69.86c117.17,18.41,245.85,13.37,342.55-53.78c78.28-54.36,125.82-144.12,141.92-236.56
		c14.37-82.53,4.97-170.35-35.56-244.12s-113.96-131.74-198.47-146.06c-144.85-24.55-286.09,83.54-343.86,215.49
		s-51.06,281.33-38.95,424.33"/>
</g>
<g id="Layer_3">
	<polyline class="st4" points="1260.43,1307.43 1393.57,1445.67 1400.58,1587.29 1134.29,1288.88 990.63,1305.74 1388.32,1747.45 
		1346.27,1851.98 890.76,1344.52 811.93,1433.87 1272.69,1949.76 1171.05,1990.22 750.58,1523.23 754.11,1668.21 1053.7,2017.2 	"/>
</g>
<g id="Layer_4">
	<polyline class="st4" points="1400.58,1201.55 1537.69,1344.55 1652.17,1340.26 1400.58,1099.36 1400.58,965.89 1761.14,1335.02 
		1839.76,1306.14 1431.14,895.92 1482.86,792.93 1913.9,1238.06 1960.46,1149.04 1551.83,730.08 1634.59,675.97 1996.66,1047.79 
		1991.49,911.63 1744.93,660.26 	"/>
</g>
</svg>
